RobotoA2-XOLC2.ufo
<glyph name="c" format="2">
  <advance width="706"/>
  <unicode hex="0063"/>
  <anchor x="378" y="0" name="bottom"/>
  <anchor x="378" y="1052" name="top"/>
  <outline>
    <contour>
      <point x="85" y="510" type="qcurve" smooth="yes"/>
      <point x="85" y="542" type="line" smooth="yes"/>
      <point x="85" y="780"/>
      <point x="241" y="1082"/>
      <point x="378" y="1082" type="qcurve" smooth="yes"/>
      <point x="505" y="1082"/>
      <point x="637" y="855"/>
      <point x="637" y="715" type="qcurve" smooth="yes"/>
      <point x="637" y="710" type="line"/>
      <point x="633" y="710" type="line"/>
      <point x="633" y="715" type="line" smooth="yes"/>
      <point x="633" y="800"/>
      <point x="515" y="930"/>
      <point x="385" y="930" type="qcurve" smooth="yes"/>
      <point x="233" y="930"/>
      <point x="89" y="705"/>
      <point x="89" y="542" type="qcurve" smooth="yes"/>
      <point x="89" y="510" type="line" smooth="yes"/>
      <point x="89" y="347"/>
      <point x="233" y="122"/>
      <point x="385" y="122" type="qcurve" smooth="yes"/>
      <point x="515" y="122"/>
      <point x="633" y="252"/>
      <point x="633" y="337" type="qcurve" smooth="yes"/>
      <point x="633" y="342" type="line"/>
      <point x="637" y="342" type="line"/>
      <point x="637" y="337" type="line" smooth="yes"/>
      <point x="637" y="197"/>
      <point x="505" y="-30"/>
      <point x="378" y="-30" type="qcurve" smooth="yes"/>
      <point x="241" y="-30"/>
      <point x="85" y="272"/>
    </contour>
  </outline>
</glyph>
<glyph name="e" format="2">
  <advance width="721"/>
  <unicode hex="0065"/>
  <anchor x="389" y="0" name="bottom"/>
  <anchor x="500" y="0" name="ogonek"/>
  <anchor x="374" y="1052" name="top"/>
  <outline>
    <contour>
      <point x="85" y="510" type="qcurve" smooth="yes"/>
      <point x="85" y="542" type="line" smooth="yes"/>
      <point x="85" y="780"/>
      <point x="242" y="1082"/>
      <point x="372" y="1082" type="qcurve" smooth="yes"/>
      <point x="502" y="1082"/>
      <point x="641" y="800"/>
      <point x="641" y="560" type="qcurve" smooth="yes"/>
      <point x="641" y="484" type="line"/>
      <point x="87" y="484" type="line"/>
      <point x="87" y="632" type="line"/>
      <point x="635" y="632" type="line"/>
      <point x="635" y="656" type="line" smooth="yes"/>
      <point x="635" y="770"/>
      <point x="505" y="930"/>
      <point x="383" y="930" type="qcurve" smooth="yes"/>
      <point x="235" y="930"/>
      <point x="89" y="705"/>
      <point x="89" y="542" type="qcurve" smooth="yes"/>
      <point x="89" y="510" type="line" smooth="yes"/>
      <point x="89" y="347"/>
      <point x="231" y="122"/>
      <point x="381" y="122" type="qcurve" smooth="yes"/>
      <point x="474" y="122"/>
      <point x="585" y="163"/>
      <point x="620" y="190" type="qcurve"/>
      <point x="637" y="175" type="line"/>
      <point x="612" y="98"/>
      <point x="481" y="-30"/>
      <point x="390" y="-30" type="qcurve" smooth="yes"/>
      <point x="242" y="-30"/>
      <point x="85" y="272"/>
    </contour>
  </outline>
</glyph>
<glyph name="g" format="2">
  <advance width="803"/>
  <unicode hex="0067"/>
  <anchor x="389" y="-416" name="bottom"/>
  <anchor x="376" y="1052" name="top"/>
  <outline>
    <contour>
      <point x="390" y="-436" type="qcurve" smooth="yes"/>
      <point x="289" y="-436"/>
      <point x="152" y="-317"/>
      <point x="127" y="-192" type="qcurve"/>
      <point x="140" y="-183" type="line"/>
      <point x="173" y="-219"/>
      <point x="293" y="-274"/>
      <point x="385" y="-274" type="qcurve"/>
      <point x="508" y="-274"/>
      <point x="651" y="-120"/>
      <point x="651" y="20" type="qcurve" smooth="yes"/>
      <point x="651" y="915" type="line"/>
      <point x="651" y="915" type="line"/>
      <point x="651" y="1052" type="line"/>
      <point x="655" y="1052" type="line"/>
      <point x="655" y="20" type="line" smooth="yes"/>
      <point x="655" y="-200"/>
      <point x="496" y="-436"/>
    </contour>
    <contour>
      <point x="358" y="136" type="qcurve" smooth="yes"/>
      <point x="489" y="136"/>
      <point x="650" y="358"/>
      <point x="650" y="507" type="qcurve" smooth="yes"/>
      <point x="650" y="535" type="line" smooth="yes"/>
      <point x="650" y="708"/>
      <point x="485" y="924"/>
      <point x="358" y="924" type="qcurve" smooth="yes"/>
      <point x="219" y="924"/>
      <point x="89" y="706"/>
      <point x="89" y="546" type="qcurve" smooth="yes"/>
      <point x="89" y="514" type="line" smooth="yes"/>
      <point x="89" y="354"/>
      <point x="219" y="136"/>
    </contour>
    <contour>
      <point x="376" y="-20" type="qcurve" smooth="yes"/>
      <point x="243" y="-20"/>
      <point x="85" y="280"/>
      <point x="85" y="510" type="qcurve" smooth="yes"/>
      <point x="85" y="542" type="line" smooth="yes"/>
      <point x="85" y="772"/>
      <point x="243" y="1072"/>
      <point x="376" y="1072" type="qcurve" smooth="yes"/>
      <point x="508" y="1072"/>
      <point x="653" y="769"/>
      <point x="653" y="531" type="qcurve" smooth="yes"/>
      <point x="653" y="505" type="line" smooth="yes"/>
      <point x="653" y="282"/>
      <point x="508" y="-20"/>
    </contour>
  </outline>
</glyph>
<glyph name="p" format="2">
  <advance width="802"/>
  <unicode hex="0070"/>
  <anchor x="427" y="0" name="bottom"/>
  <anchor x="427" y="1052" name="top"/>
  <outline>
    <contour>
      <point x="148" y="-416" type="line"/>
      <point x="148" y="1052" type="line"/>
      <point x="152" y="1052" type="line"/>
      <point x="152" y="615" type="line"/>
      <point x="152" y="615" type="line"/>
      <point x="152" y="-416" type="line"/>
    </contour>
    <contour>
      <point x="443" y="132" type="qcurve" smooth="yes"/>
      <point x="583" y="132"/>
      <point x="713" y="350"/>
      <point x="713" y="510" type="qcurve" smooth="yes"/>
      <point x="713" y="542" type="line" smooth="yes"/>
      <point x="713" y="702"/>
      <point x="583" y="920"/>
      <point x="443" y="920" type="qcurve" smooth="yes"/>
      <point x="312" y="920"/>
      <point x="151" y="698"/>
      <point x="151" y="549" type="qcurve"/>
      <point x="151" y="501" type="line" smooth="yes"/>
      <point x="151" y="328"/>
      <point x="316" y="132"/>
    </contour>
    <contour>
      <point x="427" y="-20" type="qcurve" smooth="yes"/>
      <point x="301" y="-20"/>
      <point x="150" y="245"/>
      <point x="150" y="500" type="qcurve" smooth="yes"/>
      <point x="150" y="574" type="line" smooth="yes"/>
      <point x="150" y="785"/>
      <point x="293" y="1072"/>
      <point x="427" y="1072" type="qcurve" smooth="yes"/>
      <point x="558" y="1072"/>
      <point x="717" y="772"/>
      <point x="717" y="542" type="qcurve" smooth="yes"/>
      <point x="717" y="510" type="line" smooth="yes"/>
      <point x="717" y="280"/>
      <point x="558" y="-20"/>
    </contour>
  </outline>
</glyph>
<glyph name="v" format="2">
  <advance width="874"/>
  <unicode hex="0076"/>
  <anchor x="439" y="0" name="bottom"/>
  <anchor x="370" y="1052" name="top"/>
  <outline>
    <contour>
      <point x="0" y="1052" type="line"/>
      <point x="5" y="1052" type="line"/>
      <point x="271" y="350" type="line" smooth="yes"/>
      <point x="286" y="310"/>
      <point x="362" y="110"/>
      <point x="370" y="89" type="qcurve"/>
      <point x="377" y="89" type="line"/>
      <point x="376" y="117"/>
      <point x="384" y="158"/>
      <point x="398" y="198" type="qcurve" smooth="yes"/>
      <point x="698" y="1052" type="line"/>
      <point x="874" y="1052" type="line"/>
      <point x="474" y="0" type="line"/>
      <point x="400" y="0" type="line"/>
    </contour>
  </outline>
</glyph>
<glyph name="w" format="2">
  <advance width="1516"/>
  <unicode hex="0077"/>
  <anchor x="740" y="0" name="bottom"/>
  <anchor x="710" y="1052" name="top"/>
  <outline>
    <contour>
      <point x="25" y="1052" type="line"/>
      <point x="29" y="1052" type="line"/>
      <point x="243" y="360" type="line" smooth="yes"/>
      <point x="255" y="320"/>
      <point x="319" y="113"/>
      <point x="331" y="73" type="qcurve"/>
      <point x="337" y="73" type="line"/>
      <point x="341" y="113"/>
      <point x="353" y="163"/>
      <point x="366" y="203" type="qcurve" smooth="yes"/>
      <point x="640" y="1052" type="line"/>
      <point x="726" y="1052" type="line"/>
      <point x="1016" y="203" type="line" smooth="yes"/>
      <point x="1030" y="163"/>
      <point x="1047" y="113"/>
      <point x="1060" y="73" type="qcurve"/>
      <point x="1067" y="73" type="line"/>
      <point x="1069" y="113"/>
      <point x="1077" y="163"/>
      <point x="1088" y="203" type="qcurve" smooth="yes"/>
      <point x="1322" y="1052" type="line"/>
      <point x="1491" y="1052" type="line"/>
      <point x="1166" y="0" type="line"/>
      <point x="1081" y="0" type="line"/>
      <point x="809" y="797" type="line" smooth="yes"/>
      <point x="795" y="837"/>
      <point x="768" y="917"/>
      <point x="755" y="957" type="qcurve"/>
      <point x="749" y="957" type="line"/>
      <point x="739" y="917"/>
      <point x="716" y="837"/>
      <point x="703" y="797" type="qcurve" smooth="yes"/>
      <point x="435" y="0" type="line"/>
      <point x="350" y="0" type="line"/>
    </contour>
  </outline>
</glyph>
<glyph name="tildecomb" format="2">
  <unicode hex="0303"/>
  <anchor x="0" y="1052" name="_top"/>
  <anchor x="0" y="1487" name="top"/>
  <outline>
    <contour>
      <point x="-378" y="1321" type="line"/>
      <point x="-345" y="1354"/>
      <point x="-206" y="1424"/>
      <point x="-159" y="1424" type="qcurve" smooth="yes"/>
      <point x="-112" y="1424"/>
      <point x="-34" y="1367"/>
      <point x="-7" y="1348" type="qcurve" smooth="yes"/>
      <point x="22" y="1327"/>
      <point x="122" y="1272"/>
      <point x="164" y="1272" type="qcurve" smooth="yes"/>
      <point x="204" y="1272"/>
      <point x="274" y="1390"/>
      <point x="297" y="1456" type="qcurve"/>
      <point x="378" y="1358" type="line"/>
      <point x="341" y="1323"/>
      <point x="210" y="1269"/>
      <point x="164" y="1269" type="qcurve" smooth="yes"/>
      <point x="118" y="1269"/>
      <point x="20" y="1324"/>
      <point x="-9" y="1345" type="qcurve" smooth="yes"/>
      <point x="-38" y="1366"/>
      <point x="-114" y="1420"/>
      <point x="-159" y="1420" type="qcurve" smooth="yes"/>
      <point x="-203" y="1420"/>
      <point x="-277" y="1290"/>
      <point x="-302" y="1229" type="qcurve"/>
    </contour>
  </outline>
</glyph>
<glyph name="hungarumlautcomb" format="2">
  <unicode hex="030B"/>
  <anchor x="0" y="1052" name="_top"/>
  <anchor x="0" y="1581" name="top"/>
  <outline>
    <contour>
      <point x="-256" y="1295" type="line"/>
      <point x="52" y="1528" type="line"/>
      <point x="54" y="1527" type="line"/>
      <point x="-158" y="1218" type="line"/>
    </contour>
    <contour>
      <point x="54" y="1295" type="line"/>
      <point x="362" y="1528" type="line"/>
      <point x="364" y="1527" type="line"/>
      <point x="152" y="1218" type="line"/>
    </contour>
  </outline>
</glyph>
<glyph name="dotbelowcomb" format="2">
  <unicode hex="0323"/>
  <anchor x="0" y="0" name="_bottom"/>
  <anchor x="0" y="-418" name="bottom"/>
  <outline>
    <contour>
      <point x="-25" y="-200" type="qcurve" smooth="yes"/>
      <point x="-25" y="-190"/>
      <point x="-12" y="-176"/>
      <point x="0" y="-176" type="qcurve" smooth="yes"/>
      <point x="12" y="-176"/>
      <point x="25" y="-190"/>
      <point x="25" y="-200" type="qcurve" smooth="yes"/>
      <point x="25" y="-210"/>
      <point x="12" y="-224"/>
      <point x="0" y="-224" type="qcurve" smooth="yes"/>
      <point x="-12" y="-224"/>
      <point x="-25" y="-210"/>
    </contour>
  </outline>
</glyph>
<glyph name="dieresisbelowcomb" format="2">
  <unicode hex="0324"/>
  <anchor x="0" y="0" name="_bottom"/>
  <anchor x="0" y="-421" name="bottom"/>
  <outline>
    <contour>
      <point x="-253" y="-217" type="qcurve" smooth="yes"/>
      <point x="-253" y="-206"/>
      <point x="-241" y="-194"/>
      <point x="-230" y="-194" type="qcurve" smooth="yes"/>
      <point x="-219" y="-194"/>
      <point x="-207" y="-207"/>
      <point x="-207" y="-217" type="qcurve" smooth="yes"/>
      <point x="-207" y="-228"/>
      <point x="-219" y="-239"/>
      <point x="-230" y="-239" type="qcurve" smooth="yes"/>
      <point x="-241" y="-239"/>
      <point x="-253" y="-227"/>
    </contour>
    <contour>
      <point x="207" y="-217" type="qcurve" smooth="yes"/>
      <point x="207" y="-206"/>
      <point x="219" y="-194"/>
      <point x="230" y="-194" type="qcurve" smooth="yes"/>
      <point x="241" y="-194"/>
      <point x="253" y="-207"/>
      <point x="253" y="-217" type="qcurve" smooth="yes"/>
      <point x="253" y="-228"/>
      <point x="241" y="-239"/>
      <point x="230" y="-239" type="qcurve" smooth="yes"/>
      <point x="219" y="-239"/>
      <point x="207" y="-227"/>
    </contour>
  </outline>
</glyph>
<glyph name="epsilon" format="2">
  <advance width="716"/>
  <unicode hex="03B5"/>
  <anchor x="387" y="1052" name="top"/>
  <outline>
    <contour>
      <point x="367" y="-30" type="qcurve"/>
      <point x="237" y="-30"/>
      <point x="99" y="139"/>
      <point x="99" y="290" type="qcurve" smooth="yes"/>
      <point x="99" y="380"/>
      <point x="206" y="524"/>
      <point x="322" y="536" type="qcurve"/>
      <point x="322" y="515" type="line"/>
      <point x="233" y="531"/>
      <point x="137" y="658"/>
      <point x="137" y="755" type="qcurve"/>
      <point x="137" y="906"/>
      <point x="268" y="1081"/>
      <point x="392" y="1081" type="qcurve" smooth="yes"/>
      <point x="523" y="1081"/>
      <point x="652" y="858"/>
      <point x="652" y="710" type="qcurve"/>
      <point x="648" y="710" type="line"/>
      <point x="648" y="801"/>
      <point x="530" y="930"/>
      <point x="387" y="930" type="qcurve" smooth="yes"/>
      <point x="266" y="930"/>
      <point x="141" y="845"/>
      <point x="141" y="755" type="qcurve" smooth="yes"/>
      <point x="141" y="674"/>
      <point x="238" y="597"/>
      <point x="323" y="597" type="qcurve" smooth="yes"/>
      <point x="533" y="597" type="line"/>
      <point x="533" y="455" type="line"/>
      <point x="323" y="455" type="line" smooth="yes"/>
      <point x="204" y="455"/>
      <point x="103" y="365"/>
      <point x="103" y="290" type="qcurve" smooth="yes"/>
      <point x="103" y="212"/>
      <point x="224" y="122"/>
      <point x="367" y="122" type="qcurve"/>
      <point x="501" y="122"/>
      <point x="647" y="245"/>
      <point x="647" y="342" type="qcurve"/>
      <point x="651" y="342" type="line"/>
      <point x="651" y="191"/>
      <point x="498" y="-30"/>
    </contour>
  </outline>
</glyph>
<glyph name="eta" format="2">
  <advance width="774"/>
  <unicode hex="03B7"/>
  <anchor x="569" y="0" name="bottom"/>
  <anchor x="410" y="1052" name="top"/>
  <outline>
    <contour>
      <point x="148" y="0" type="line"/>
      <point x="148" y="1052" type="line"/>
      <point x="152" y="1052" type="line"/>
      <point x="152" y="744" type="line"/>
      <point x="152" y="0" type="line"/>
    </contour>
    <contour>
      <point x="150" y="743" type="qcurve"/>
      <point x="150" y="928" type="line"/>
      <point x="165" y="972"/>
      <point x="296" y="1072"/>
      <point x="383" y="1072" type="qcurve" smooth="yes"/>
      <point x="498" y="1072"/>
      <point x="636" y="911"/>
      <point x="636" y="699" type="qcurve" smooth="yes"/>
      <point x="636" y="-420" type="line"/>
      <point x="632" y="-420" type="line"/>
      <point x="632" y="701" type="line" smooth="yes"/>
      <point x="632" y="827"/>
      <point x="519" y="916"/>
      <point x="415" y="916" type="qcurve" smooth="yes"/>
      <point x="324" y="916"/>
      <point x="169" y="807"/>
    </contour>
  </outline>
</glyph>
<glyph name="theta" format="2">
  <advance width="769"/>
  <unicode hex="03B8"/>
  <outline>
    <contour>
      <point x="385" y="-30" type="qcurve" smooth="yes"/>
      <point x="252" y="-30"/>
      <point x="95" y="284"/>
      <point x="95" y="654" type="qcurve"/>
      <point x="95" y="882" type="line"/>
      <point x="95" y="1242"/>
      <point x="251" y="1556"/>
      <point x="385" y="1556" type="qcurve" smooth="yes"/>
      <point x="518" y="1556"/>
      <point x="674" y="1242"/>
      <point x="674" y="882" type="qcurve"/>
      <point x="674" y="654" type="line"/>
      <point x="674" y="284"/>
      <point x="519" y="-30"/>
    </contour>
    <contour>
      <point x="387" y="122" type="qcurve" smooth="yes"/>
      <point x="522" y="122"/>
      <point x="670" y="352"/>
      <point x="670" y="614" type="qcurve"/>
      <point x="670" y="916" type="line" smooth="yes"/>
      <point x="670" y="1178"/>
      <point x="519" y="1404"/>
      <point x="385" y="1404" type="qcurve" smooth="yes"/>
      <point x="253" y="1404"/>
      <point x="99" y="1178"/>
      <point x="99" y="916" type="qcurve" smooth="yes"/>
      <point x="99" y="614" type="line" smooth="yes"/>
      <point x="99" y="352"/>
      <point x="255" y="122"/>
    </contour>
    <contour>
      <point x="97" y="683" type="line"/>
      <point x="97" y="825" type="line"/>
      <point x="672" y="825" type="line"/>
      <point x="672" y="683" type="line"/>
    </contour>
  </outline>
</glyph>
<glyph name="chi" format="2">
  <advance width="979"/>
  <unicode hex="03C7"/>
  <outline>
    <contour>
      <point x="874" y="-416" type="line"/>
      <point x="484" y="337" type="line"/>
      <point x="484" y="337" type="line"/>
      <point x="114" y="1052" type="line"/>
      <point x="118" y="1052" type="line"/>
      <point x="487" y="340" type="line"/>
      <point x="487" y="340" type="line"/>
      <point x="879" y="-416" type="line"/>
    </contour>
    <contour>
      <point x="20" y="-416" type="line"/>
      <point x="443" y="422" type="line"/>
      <point x="443" y="422" type="line"/>
      <point x="739" y="1052" type="line"/>
      <point x="949" y="1052" type="line"/>
      <point x="541" y="231" type="line"/>
      <point x="541" y="231" type="line"/>
      <point x="230" y="-416" type="line"/>
    </contour>
  </outline>
</glyph>
<glyph name="psi" format="2">
  <advance width="892"/>
  <unicode hex="03C8"/>
  <outline>
    <contour>
      <point x="444" y="-416" type="line"/>
      <point x="444" y="1536" type="line"/>
      <point x="448" y="1536" type="line"/>
      <point x="448" y="-416" type="line"/>
    </contour>
    <contour>
      <point x="444" y="-20" type="line" smooth="yes"/>
      <point x="313" y="-20"/>
      <point x="138" y="237"/>
      <point x="138" y="480" type="qcurve" smooth="yes"/>
      <point x="138" y="1052" type="line"/>
      <point x="142" y="1052" type="line"/>
      <point x="142" y="490" type="line" smooth="yes"/>
      <point x="142" y="322"/>
      <point x="307" y="136"/>
      <point x="444" y="136" type="qcurve" smooth="yes"/>
      <point x="448" y="136" type="line" smooth="yes"/>
      <point x="585" y="136"/>
      <point x="750" y="322"/>
      <point x="750" y="490" type="qcurve" smooth="yes"/>
      <point x="750" y="1052" type="line"/>
      <point x="754" y="1052" type="line"/>
      <point x="754" y="480" type="line" smooth="yes"/>
      <point x="754" y="237"/>
      <point x="579" y="-20"/>
      <point x="447" y="-20" type="qcurve" smooth="yes"/>
    </contour>
  </outline>
</glyph>
<glyph name="icyr" format="2">
  <advance width="801"/>
  <unicode hex="0438"/>
  <anchor x="409" y="1052" name="top"/>
  <outline>
    <contour>
      <point x="148" y="0" type="line"/>
      <point x="148" y="1052" type="line"/>
      <point x="152" y="1052" type="line"/>
      <point x="152" y="403" type="line" smooth="yes"/>
      <point x="152" y="373"/>
      <point x="151" y="298"/>
      <point x="150" y="268" type="qcurve"/>
      <point x="160" y="268" type="line"/>
      <point x="174" y="293"/>
      <point x="209" y="352"/>
      <point x="228" y="383" type="qcurve" smooth="yes"/>
      <point x="645" y="1052" type="line"/>
      <point x="652" y="1052" type="line"/>
      <point x="652" y="0" type="line"/>
      <point x="648" y="0" type="line"/>
      <point x="648" y="648" type="line" smooth="yes"/>
      <point x="648" y="678"/>
      <point x="651" y="758"/>
      <point x="653" y="788" type="qcurve"/>
      <point x="638" y="788" type="line"/>
      <point x="626" y="763"/>
      <point x="591" y="699"/>
      <point x="572" y="668" type="qcurve" smooth="yes"/>
      <point x="155" y="0" type="line"/>
    </contour>
  </outline>
</glyph>
<glyph name="tse" format="2">
  <advance width="791"/>
  <unicode hex="0446"/>
  <outline>
    <contour>
      <point x="603" y="-270" type="line"/>
      <point x="603" y="0" type="line"/>
      <point x="148" y="0" type="line"/>
      <point x="148" y="1052" type="line"/>
      <point x="152" y="1052" type="line"/>
      <point x="152" y="145" type="line"/>
      <point x="612" y="145" type="line"/>
      <point x="612" y="1052" type="line"/>
      <point x="616" y="1052" type="line"/>
      <point x="616" y="145" type="line"/>
      <point x="771" y="145" type="line"/>
      <point x="771" y="-270" type="line"/>
    </contour>
  </outline>
</glyph>
<glyph name="soft" format="2">
  <advance width="684"/>
  <unicode hex="044C"/>
  <outline>
    <contour>
      <point x="148" y="0" type="line"/>
      <point x="148" y="1052" type="line"/>
      <point x="152" y="1052" type="line"/>
      <point x="152" y="145" type="line"/>
      <point x="394" y="145" type="line" smooth="yes"/>
      <point x="519" y="145"/>
      <point x="620" y="260"/>
      <point x="620" y="348" type="qcurve" smooth="yes"/>
      <point x="620" y="435"/>
      <point x="519" y="547"/>
      <point x="394" y="547" type="qcurve" smooth="yes"/>
      <point x="150" y="547" type="line"/>
      <point x="150" y="692" type="line"/>
      <point x="354" y="692" type="line" smooth="yes"/>
      <point x="484" y="692"/>
      <point x="624" y="506"/>
      <point x="624" y="348" type="qcurve" smooth="yes"/>
      <point x="624" y="190"/>
      <point x="484" y="0"/>
      <point x="354" y="0" type="qcurve" smooth="yes"/>
    </contour>
  </outline>
</glyph>
<glyph name="ya" format="2">
  <advance width="819"/>
  <unicode hex="044F"/>
  <anchor x="465" y="1052" name="top"/>
  <outline>
    <contour>
      <point x="85" y="0" type="line"/>
      <point x="393" y="438" type="line"/>
      <point x="397" y="437" type="line"/>
      <point x="90" y="0" type="line"/>
    </contour>
    <contour>
      <point x="185" y="716" type="qcurve" smooth="yes"/>
      <point x="185" y="869"/>
      <point x="330" y="1052"/>
      <point x="465" y="1052" type="qcurve" smooth="yes"/>
      <point x="671" y="1052" type="line"/>
      <point x="671" y="0" type="line"/>
      <point x="667" y="0" type="line"/>
      <point x="667" y="907" type="line"/>
      <point x="405" y="907" type="line" smooth="yes"/>
      <point x="286" y="907"/>
      <point x="189" y="799"/>
      <point x="189" y="716" type="qcurve" smooth="yes"/>
      <point x="189" y="633"/>
      <point x="285" y="529"/>
      <point x="405" y="529" type="qcurve" smooth="yes"/>
      <point x="669" y="529" type="line"/>
      <point x="669" y="384" type="line"/>
      <point x="363" y="384" type="line"/>
      <point x="355" y="396" type="line"/>
      <point x="310" y="396"/>
      <point x="185" y="569"/>
    </contour>
  </outline>
</glyph>
<glyph name="kaverticalstrokecyr" format="2">
  <advance width="1028"/>
  <unicode hex="049D"/>
  <guideline x="547" y="651" angle="90.0" identifier="ATaXbxe4rK"/>
  <outline>
    <contour>
      <point x="447" y="852" type="line"/>
      <point x="447" y="200" type="line"/>
      <point x="282" y="200" type="line"/>
      <point x="282" y="852" type="line"/>
    </contour>
    <contour>
      <point x="152" y="1052" type="line"/>
      <point x="152" y="0" type="line"/>
      <point x="148" y="0" type="line"/>
      <point x="148" y="1052" type="line"/>
    </contour>
    <contour>
      <point x="937" y="0" type="line"/>
      <point x="492" y="544" type="line"/>
      <point x="495" y="546" type="line"/>
      <point x="943" y="0" type="line"/>
    </contour>
    <contour>
      <point x="365" y="610" type="line"/>
      <point x="447" y="610" type="line"/>
      <point x="802" y="1052" type="line"/>
      <point x="1016" y="1052" type="line"/>
      <point x="534" y="465" type="line"/>
      <point x="365" y="465" type="line"/>
    </contour>
  </outline>
</glyph>
<glyph name="kabashkircyr" format="2">
  <advance width="1215"/>
  <unicode hex="04A1"/>
  <outline>
    <contour>
      <point x="1115" y="0" type="line"/>
      <point x="640" y="544" type="line"/>
      <point x="643" y="546" type="line"/>
      <point x="1120" y="0" type="line"/>
    </contour>
    <contour>
      <point x="504" y="610" type="line"/>
      <point x="592" y="610" type="line"/>
      <point x="977" y="1052" type="line"/>
      <point x="1195" y="1052" type="line"/>
      <point x="680" y="465" type="line"/>
      <point x="504" y="465" type="line"/>
    </contour>
    <contour>
      <point x="506" y="1052" type="line"/>
      <point x="506" y="0" type="line"/>
      <point x="502" y="0" type="line"/>
      <point x="502" y="907" type="line"/>
      <point x="212" y="907" type="line"/>
      <point x="212" y="1052" type="line"/>
    </contour>
  </outline>
</glyph>
<glyph name="caroncomb-stack" format="2">
  <anchor x="0" y="1052" name="_top"/>
  <anchor x="0" y="1528" name="top"/>
  <outline>
    <contour>
      <point x="-5" y="1215" type="line"/>
      <point x="-334" y="1505" type="line"/>
      <point x="-167" y="1505" type="line"/>
      <point x="0" y="1219" type="line"/>
      <point x="167" y="1505" type="line"/>
      <point x="332" y="1505" type="line"/>
      <point x="4" y="1215" type="line"/>
    </contour>
  </outline>
</glyph>
<glyph name="ghe.bgr" format="2">
  <advance width="661"/>
  <outline>
    <contour>
      <point x="581" y="310" type="line"/>
      <point x="581" y="305" type="line" smooth="yes"/>
      <point x="581" y="143"/>
      <point x="466" y="-30"/>
      <point x="331" y="-30" type="qcurve" smooth="yes"/>
      <point x="196" y="-30"/>
      <point x="80" y="150"/>
      <point x="80" y="280" type="qcurve" smooth="yes"/>
      <point x="80" y="379"/>
      <point x="173" y="502"/>
      <point x="325" y="549" type="qcurve" smooth="yes"/>
      <point x="474" y="595"/>
      <point x="542" y="715"/>
      <point x="542" y="782" type="qcurve" smooth="yes"/>
      <point x="542" y="853"/>
      <point x="442" y="930"/>
      <point x="332" y="930" type="qcurve" smooth="yes"/>
      <point x="222" y="930"/>
      <point x="117" y="844"/>
      <point x="117" y="769" type="qcurve" smooth="yes"/>
      <point x="117" y="760" type="line"/>
      <point x="113" y="760" type="line"/>
      <point x="113" y="765" type="line" smooth="yes"/>
      <point x="113" y="911"/>
      <point x="226" y="1082"/>
      <point x="332" y="1082" type="qcurve" smooth="yes"/>
      <point x="438" y="1082"/>
      <point x="557" y="910"/>
      <point x="557" y="783" type="qcurve" smooth="yes"/>
      <point x="557" y="705"/>
      <point x="483" y="593"/>
      <point x="326" y="545" type="qcurve" smooth="yes"/>
      <point x="178" y="500"/>
      <point x="94" y="378"/>
      <point x="94" y="303" type="qcurve" smooth="yes"/>
      <point x="94" y="207"/>
      <point x="221" y="122"/>
      <point x="331" y="122" type="qcurve" smooth="yes"/>
      <point x="441" y="122"/>
      <point x="575" y="214"/>
      <point x="575" y="305" type="qcurve" smooth="yes"/>
      <point x="575" y="310" type="line"/>
    </contour>
  </outline>
</glyph>
<glyph name="ve.bgr" format="2">
  <advance width="710"/>
  <outline>
    <contour>
      <point x="125" y="400" type="qcurve" smooth="yes"/>
      <point x="125" y="1150" type="line" smooth="yes"/>
      <point x="125" y="1338"/>
      <point x="247" y="1556"/>
      <point x="360" y="1556" type="qcurve" smooth="yes"/>
      <point x="468" y="1556"/>
      <point x="586" y="1344"/>
      <point x="586" y="1155" type="qcurve" smooth="yes"/>
      <point x="586" y="1054"/>
      <point x="506" y="856"/>
      <point x="417" y="806" type="qcurve"/>
      <point x="417" y="802" type="line"/>
      <point x="516" y="776"/>
      <point x="635" y="588"/>
      <point x="635" y="421" type="qcurve" smooth="yes"/>
      <point x="635" y="201"/>
      <point x="496" y="-30"/>
      <point x="381" y="-30" type="qcurve" smooth="yes"/>
      <point x="255" y="-30"/>
      <point x="125" y="201"/>
    </contour>
    <contour>
      <point x="129" y="400" type="line" smooth="yes"/>
      <point x="129" y="257"/>
      <point x="256" y="122"/>
      <point x="380" y="122" type="qcurve" smooth="yes"/>
      <point x="504" y="122"/>
      <point x="631" y="257"/>
      <point x="631" y="421" type="qcurve"/>
      <point x="631" y="572"/>
      <point x="482" y="728"/>
      <point x="342" y="728" type="qcurve" smooth="yes"/>
      <point x="127" y="728" type="line"/>
      <point x="127" y="870" type="line"/>
      <point x="333" y="870" type="line" smooth="yes"/>
      <point x="448" y="870"/>
      <point x="581" y="1021"/>
      <point x="581" y="1154" type="qcurve" smooth="yes"/>
      <point x="581" y="1278"/>
      <point x="472" y="1404"/>
      <point x="361" y="1404" type="qcurve" smooth="yes"/>
      <point x="249" y="1404"/>
      <point x="129" y="1273"/>
      <point x="129" y="1150" type="qcurve" smooth="yes"/>
    </contour>
  </outline>
</glyph>
